<svg id="Layer_1" data-name="Layer 1" xmlns="http://www.w3.org/2000/svg" viewBox="0 0 872.57 265.83"><defs><style>.cls-1{fill:#fff;}.cls-2{fill:#5ac1a1;}.cls-3{fill:#c4b3d8;}.cls-4{fill:#43c5f1;}.cls-5{fill:#f9ae84;}</style></defs><path class="cls-1" d="M518.39,365.94V284.29a2.39,2.39,0,0,0-2.4-2.4H435.66a2.4,2.4,0,0,0-2.4,2.4v81.65a10.94,10.94,0,0,1-10.95,10.94h-2.77a10.94,10.94,0,0,1-11-10.94V182.12a11,11,0,0,1,11-11h2.77a11,11,0,0,1,10.95,11v75.79a2.4,2.4,0,0,0,2.4,2.39H516a2.39,2.39,0,0,0,2.4-2.39V182.12a11,11,0,0,1,11-11h2.46a11,11,0,0,1,11,11V365.94a10.94,10.94,0,0,1-11,10.94h-2.46A10.94,10.94,0,0,1,518.39,365.94Z" transform="translate(-63.71 -111.05)"/><path class="cls-1" d="M585.93,365.94V182.12a11,11,0,0,1,11-11h2.77a11,11,0,0,1,11,11V365.94a10.94,10.94,0,0,1-11,10.94h-2.77A10.94,10.94,0,0,1,585.93,365.94Z" transform="translate(-63.71 -111.05)"/><path class="cls-1" d="M760.77,371.18,683,228.45a2.4,2.4,0,0,0-4.5,1.15V365.94a10.94,10.94,0,0,1-11,10.94h-2.78a10.94,10.94,0,0,1-10.94-10.94V182.12a10.94,10.94,0,0,1,10.94-11H672a10.94,10.94,0,0,1,9.59,5.67l76.89,139.75a2.4,2.4,0,0,0,4.5-1.15V182.12a11,11,0,0,1,10.95-11h2.46a11,11,0,0,1,11,11V365.94a10.94,10.94,0,0,1-11,10.94h-6A11,11,0,0,1,760.77,371.18Z" transform="translate(-63.71 -111.05)"/><path class="cls-1" d="M830.5,365.94V182.12a11,11,0,0,1,11-11h83.89a11,11,0,0,1,10.95,11h0a10.94,10.94,0,0,1-10.95,10.94H866.12a11,11,0,0,0-11,10.95v54.2a2.39,2.39,0,0,0,2.4,2.4h65.61a11,11,0,0,1,11,10.95h0a11,11,0,0,1-11,10.95H857.57a2.39,2.39,0,0,0-2.4,2.39V344a11,11,0,0,0,11,10.95h59.22a11,11,0,0,1,10.95,10.95h0a10.94,10.94,0,0,1-10.95,10.94H841.45A10.94,10.94,0,0,1,830.5,365.94Z" transform="translate(-63.71 -111.05)"/><path class="cls-2" d="M114.21,214.44a4.53,4.53,0,0,1-2.32-8.59c34.36-16.42,90.6-37.15,88.25,4.42-2.06,36.58-22.47,84.41-38,116-2.36,4.81-9.66,2.24-8.48-3,7.58-33.81,15.57-81.13,5.16-96C150.11,214.76,130.76,213.13,114.21,214.44Z" transform="translate(-63.71 -111.05)"/><path class="cls-3" d="M67.7,170.74c-5.47.67-5.24,8.67.26,9,37.51,2.35,84.4,1.67,101.45-14,21.41-19.63-3.62-42.35-19.93-53.88a4.53,4.53,0,0,0-7,4.91c2.44,9.13,3.29,21.44-5.4,30.4C123.82,160.92,94.33,167.48,67.7,170.74Z" transform="translate(-63.71 -111.05)"/><path class="cls-4" d="M205.92,127.34a4.5,4.5,0,0,0-8.21-.75c-7.81,14.23-14.86,33.7,3.54,35.78,12.91,1.46,31-3.94,47.28-10.44,4.9-2,3.06-9.35-2.18-8.72-11.61,1.4-23,1.14-29.79-3.19C210.37,136.08,207.29,131.58,205.92,127.34Z" transform="translate(-63.71 -111.05)"/><path class="cls-5" d="M216.42,343.09a7,7,0,0,1,7.3-5.36,16.41,16.41,0,0,1,4.62.73q1.93.26,13.13,4.38a194,194,0,0,0,23.34,6.81,110,110,0,0,0,25.78,2.92q23.09,0,35.74-9.48,12.89-9.49,12.89-23.35,0-19.69-13.86-28-13.86-8-42.56-16-28.44-7.53-43-18-14.58-10-14.59-32.82,0-15.07,10.7-28,10.22-12.15,30.16-19.21,19.44-6.57,44-6.56a194.93,194.93,0,0,1,42.8,4.86q20.91,4.86,20.91,16.05-.74,7-10.94,7-2.69,0-14.84-2.67A123.57,123.57,0,0,0,322,194q-19.21,0-34.28,8t-15.08,21.88q0,16.78,11.43,24.08,11.43,7.53,37,15.32,1.45.48,22.62,6.8a122,122,0,0,1,24.07,10,46.91,46.91,0,0,1,16.05,15.31q6.31,9.74,6.32,23.83a43.62,43.62,0,0,1-11.19,29.91Q367.67,362.3,347,369.59q-20.43,7.29-46.45,7.29a188.86,188.86,0,0,1-39.87-4.62q-22.86-4.86-35-12.88-10-6.57-10-12.89A8.5,8.5,0,0,1,216.42,343.09Z" transform="translate(-63.71 -111.05)"/></svg>